HIERARCHY
ROOT Hips
{
    OFFSET   0.000000   0.000000   0.000000
    CHANNELS 6 Xposition Yposition Zposition Zrotation Xrotation Yrotation
    JOINT Chest
    {
        OFFSET   0.000000   8.007240   0.000000
        CHANNELS 3 Zrotation Xrotation Yrotation
        JOINT Chest2
        {
            OFFSET   0.000000  22.077100   0.000000
            CHANNELS 3 Zrotation Xrotation Yrotation
            JOINT Neck
            {
                OFFSET   0.000000  23.254800   0.000000
                CHANNELS 3 Zrotation Xrotation Yrotation
                JOINT Head
                {
                    OFFSET   0.000000  14.370000   1.956600
                    CHANNELS 3 Zrotation Xrotation Yrotation
                    End Site
                    {
                        OFFSET   0.000000  19.566000   0.000000
                    }
                }
            }
            JOINT LeftCollar
            {
                OFFSET   3.911900  19.017000  -0.467064
                CHANNELS 3 Zrotation Xrotation Yrotation
                JOINT LeftShoulder
                {
                    OFFSET  10.383700   0.000000   0.000000
                    CHANNELS 3 Zrotation Xrotation Yrotation
                    JOINT LeftElbow
                    {
                        OFFSET  26.662100   0.001476   0.000517
                        CHANNELS 3 Zrotation Xrotation Yrotation
                        JOINT LeftWrist
                        {
                            OFFSET  28.869000  -0.000025  -0.000106
                            CHANNELS 3 Zrotation Xrotation Yrotation
                            JOINT LeftFinger0
                            {
                                OFFSET   2.044660  -2.323460   3.252850
                                CHANNELS 3 Zrotation Xrotation Yrotation
                                JOINT LeftFinger01
                                {
                                    OFFSET   3.088130   0.000000   0.000000
                                    CHANNELS 3 Zrotation Xrotation Yrotation
                                    JOINT LeftFinger02
                                    {
                                        OFFSET   2.639460   0.000000   0.000000
                                        CHANNELS 3 Zrotation Xrotation Yrotation
                                        End Site
                                        {
                                            OFFSET   2.582190   0.000000   0.000000
                                        }
                                    }
                                }
                            }
                            JOINT LeftFinger1
                            {
                                OFFSET   8.364480   0.000000   3.252850
                                CHANNELS 3 Zrotation Xrotation Yrotation
                                JOINT LeftFinger11
                                {
                                    OFFSET   4.646930   0.000000   0.000000
                                    CHANNELS 3 Zrotation Xrotation Yrotation
                                    JOINT LeftFinger12
                                    {
                                        OFFSET   2.323460   0.000000   0.000000
                                        CHANNELS 3 Zrotation Xrotation Yrotation
                                        End Site
                                        {
                                            OFFSET   2.273050   0.000000   0.000000
                                        }
                                    }
                                }
                            }
                            JOINT LeftFinger2
                            {
                                OFFSET   8.364490   0.000015   1.078090
                                CHANNELS 3 Zrotation Xrotation Yrotation
                                JOINT LeftFinger21
                                {
                                    OFFSET   5.111620   0.000000   0.000000
                                    CHANNELS 3 Zrotation Xrotation Yrotation
                                    JOINT LeftFinger22
                                    {
                                        OFFSET   2.788160   0.000016   0.000000
                                        CHANNELS 3 Zrotation Xrotation Yrotation
                                        End Site
                                        {
                                            OFFSET   2.727660   0.000000   0.000000
                                        }
                                    }
                                }
                            }
                            JOINT LeftFinger3
                            {
                                OFFSET   7.899780   0.000017  -1.078090
                                CHANNELS 3 Zrotation Xrotation Yrotation
                                JOINT LeftFinger31
                                {
                                    OFFSET   4.646930   0.000000   0.000000
                                    CHANNELS 3 Zrotation Xrotation Yrotation
                                    JOINT LeftFinger32
                                    {
                                        OFFSET   2.323470   0.000000   0.000000
                                        CHANNELS 3 Zrotation Xrotation Yrotation
                                        End Site
                                        {
                                            OFFSET   2.273050   0.000000   0.000000
                                        }
                                    }
                                }
                            }
                            JOINT LeftFinger4
                            {
                                OFFSET   7.435090   0.000000  -3.252850
                                CHANNELS 3 Zrotation Xrotation Yrotation
                                JOINT LeftFinger41
                                {
                                    OFFSET   3.717550   0.000000   0.000000
                                    CHANNELS 3 Zrotation Xrotation Yrotation
                                    JOINT LeftFinger42
                                    {
                                        OFFSET   1.858770   0.000000   0.000000
                                        CHANNELS 3 Zrotation Xrotation Yrotation
                                        End Site
                                        {
                                            OFFSET   1.818440   0.000000   0.000000
                                        }
                                    }
                                }
                            }
                        }
                    }
                }
            }
            JOINT RightCollar
            {
                OFFSET  -3.911900  19.017000  -0.467063
                CHANNELS 3 Zrotation Xrotation Yrotation
                JOINT RightShoulder
                {
                    OFFSET -10.383700   0.000019   0.000000
                    CHANNELS 3 Zrotation Xrotation Yrotation
                    JOINT RightElbow
                    {
                        OFFSET -26.662100   0.001175   0.000102
                        CHANNELS 3 Zrotation Xrotation Yrotation
                        JOINT RightWrist
                        {
                            OFFSET -28.869000   0.000016  -0.000079
                            CHANNELS 3 Zrotation Xrotation Yrotation
                            JOINT RightFinger0
                            {
                                OFFSET  -2.044660  -2.323490   3.252850
                                CHANNELS 3 Zrotation Xrotation Yrotation
                                JOINT RightFinger01
                                {
                                    OFFSET  -3.088140   0.000000   0.000000
                                    CHANNELS 3 Zrotation Xrotation Yrotation
                                    JOINT RightFinger02
                                    {
                                        OFFSET  -2.639460   0.000000   0.000000
                                        CHANNELS 3 Zrotation Xrotation Yrotation
                                        End Site
                                        {
                                            OFFSET  -2.582190   0.000000   0.000000
                                        }
                                    }
                                }
                            }
                            JOINT RightFinger1
                            {
                                OFFSET  -8.364480   0.000000   3.252850
                                CHANNELS 3 Zrotation Xrotation Yrotation
                                JOINT RightFinger11
                                {
                                    OFFSET  -4.646930   0.000000   0.000000
                                    CHANNELS 3 Zrotation Xrotation Yrotation
                                    JOINT RightFinger12
                                    {
                                        OFFSET  -2.323470   0.000000   0.000000
                                        CHANNELS 3 Zrotation Xrotation Yrotation
                                        End Site
                                        {
                                            OFFSET  -2.273050   0.000000   0.000000
                                        }
                                    }
                                }
                            }
                            JOINT RightFinger2
                            {
                                OFFSET  -8.364480   0.000000   1.078090
                                CHANNELS 3 Zrotation Xrotation Yrotation
                                JOINT RightFinger21
                                {
                                    OFFSET  -5.111620   0.000000   0.000000
                                    CHANNELS 3 Zrotation Xrotation Yrotation
                                    JOINT RightFinger22
                                    {
                                        OFFSET  -2.788160   0.000000   0.000000
                                        CHANNELS 3 Zrotation Xrotation Yrotation
                                        End Site
                                        {
                                            OFFSET  -2.727660   0.000000   0.000000
                                        }
                                    }
                                }
                            }
                            JOINT RightFinger3
                            {
                                OFFSET  -7.899780   0.000000  -1.078090
                                CHANNELS 3 Zrotation Xrotation Yrotation
                                JOINT RightFinger31
                                {
                                    OFFSET  -4.646930   0.000000   0.000000
                                    CHANNELS 3 Zrotation Xrotation Yrotation
                                    JOINT RightFinger32
                                    {
                                        OFFSET  -2.323470   0.000000   0.000000
                                        CHANNELS 3 Zrotation Xrotation Yrotation
                                        End Site
                                        {
                                            OFFSET  -2.273050   0.000000   0.000000
                                        }
                                    }
                                }
                            }
                            JOINT RightFinger4
                            {
                                OFFSET  -7.435090   0.000000  -3.252850
                                CHANNELS 3 Zrotation Xrotation Yrotation
                                JOINT RightFinger41
                                {
                                    OFFSET  -3.717550   0.000000   0.000000
                                    CHANNELS 3 Zrotation Xrotation Yrotation
                                    JOINT RightFinger42
                                    {
                                        OFFSET  -1.858770   0.000000   0.000000
                                        CHANNELS 3 Zrotation Xrotation Yrotation
                                        End Site
                                        {
                                            OFFSET  -1.818440   0.000000   0.000000
                                        }
                                    }
                                }
                            }
                        }
                    }
                }
            }
        }
    }
    JOINT LeftHip
    {
        OFFSET   9.783040   0.000000   0.000000
        CHANNELS 3 Zrotation Xrotation Yrotation
        JOINT LeftKnee
        {
            OFFSET   0.000032 -41.789100  -0.002222
            CHANNELS 3 Zrotation Xrotation Yrotation
            JOINT LeftAnkle
            {
                OFFSET   0.000087 -41.133200  -0.000135
                CHANNELS 3 Zrotation Xrotation Yrotation
                JOINT LeftToe
                {
                    OFFSET   0.000000  -6.358960  14.674500
                    CHANNELS 3 Zrotation Xrotation Yrotation
                    End Site
                    {
                        OFFSET   0.000000   0.000000   3.913200
                    }
                }
            }
        }
    }
    JOINT RightHip
    {
        OFFSET  -9.783040   0.000000   0.000000
        CHANNELS 3 Zrotation Xrotation Yrotation
        JOINT RightKnee
        {
            OFFSET   0.000047 -41.789100  -0.000896
            CHANNELS 3 Zrotation Xrotation Yrotation
            JOINT RightAnkle
            {
                OFFSET  -0.000117 -41.133300  -0.000248
                CHANNELS 3 Zrotation Xrotation Yrotation
                JOINT RightToe
                {
                    OFFSET   0.000000  -6.358970  14.674500
                    CHANNELS 3 Zrotation Xrotation Yrotation
                    End Site
                    {
                        OFFSET   0.000000   0.000000   3.913200
                    }
                }
            }
        }
    }
}
MOTION
Frames: 5
Frame Time:   0.016667
  2.202480  89.423000  -0.810544  -1.107310  -1.455590   0.824533   0.924383   2.784790  -0.805573   1.891280   5.555930  -1.659010  -2.475950   0.461483   0.015143  -4.069090   0.930563   7.082570  -4.830260   2.542650  10.994300 -79.807000   9.389640  -1.105830  -0.614000   3.138150 -14.139000   6.150770  -3.523110  -3.755510  37.222900  28.214300 -51.881900 -32.731000  -0.005876   0.011720 -11.365500  -0.002943   0.002325 -29.825000  -1.449310   2.535800 -24.428400  -0.001552  -0.002235 -17.099900   0.005008  -0.001819 -28.520600  -3.869130   7.083050 -40.610700  -0.001854  -0.000802 -27.046700   0.010469  -0.000919 -27.437200  -3.735770   7.154970 -30.074700   0.008043   0.000702 -20.029700   0.001901   0.000361 -28.543200  -3.864720   7.073920 -43.172400  -0.001806   0.000488 -28.752800   0.002235  -0.001818   5.550350   4.419710   7.879030  71.811900  -2.219950   0.018703   4.505320  -2.700630  16.573600 -19.695200  -1.669790   6.318380 -53.426700  50.835900 100.210000  19.913000  -0.000272   0.000076   4.956490   0.000254  -0.001660  39.824400   1.639740   1.965150  32.606600   0.005241  -0.003287  22.866100   0.002101  -0.001573  29.646500  -3.748050  -6.543810  44.791500   0.012540  -0.004106  29.831100   0.007960  -0.002987  29.446300  -3.720720  -6.556820  44.489200  -0.002799  -0.002890  29.629800   0.000694  -0.005191  35.032400  -4.681610  -6.640920  52.956300  -0.011830   0.003906  35.268800  -0.005451   0.007966   2.643870   4.446360   0.646686  -0.442931   0.136105  13.157100  -2.224510  -3.779420   0.349816  -0.000000   0.000000   0.000000  -2.846210   4.441300  -2.901340   1.234070   0.308431 -14.089800   2.261520  -2.301790   0.141421  -0.000000   0.000000  -0.000000
  2.194540  89.423600  -0.826474  -1.107290  -1.465740   0.824661   0.924392   2.791450  -0.803754   1.891340   5.569270  -1.655490  -2.475950   0.467711   0.015119  -4.069340   0.943065   7.081870  -4.830300   2.543090  10.987000 -79.798500   9.397080  -1.113370  -0.615525   3.129060 -14.150300   6.150240  -3.523070  -3.764570  37.244300  28.234600 -51.886400 -32.720600  -0.006112   0.011791 -11.360300  -0.003056   0.002353 -29.811500  -1.449320   2.532380 -24.417400  -0.001558  -0.002254 -17.092200   0.005003  -0.001833 -28.520600  -3.869120   7.083020 -40.595200  -0.001872  -0.000818 -27.036400   0.010464  -0.000928 -27.437200  -3.735750   7.154950 -30.059500   0.008041   0.000707 -20.019600   0.001892   0.000362 -28.534900  -3.864710   7.073890 -43.159900  -0.001820   0.000475 -28.744500   0.002213  -0.001794   5.561490   4.406080   7.888740  71.838900  -2.194110   0.008997   4.449510  -2.680080  16.602900 -19.650500  -1.710010   6.325600 -53.389100  50.829200 100.183000  19.949600  -0.000258   0.000126   4.974810   0.000265  -0.001621  39.815800   1.646490   1.974460  32.599400   0.005237  -0.003287  22.859700   0.002103  -0.001569  29.641300  -3.748170  -6.545260  44.783900   0.012539  -0.004101  29.826000   0.007963  -0.002965  29.441100  -3.720700  -6.558270  44.481600  -0.002804  -0.002885  29.624700   0.000695  -0.005186  35.023200  -4.696650  -6.668330  52.947800  -0.011854   0.003889  35.263200  -0.005452   0.007977   2.644510   4.478820   0.642819  -0.441400   0.069926  13.171800  -2.222250  -3.732290   0.338629  -0.000000   0.000000   0.000000  -2.847040   4.426900  -2.901270   1.233730   0.338687 -14.090300   2.259260  -2.304490   0.141912  -0.000000   0.000000   0.000000
  2.181110  89.425100  -0.853088  -1.107160  -1.483630   0.824841   0.924317   2.804150  -0.797997   1.891090   5.594750  -1.644190  -2.475950   0.477495   0.015072  -4.070410   0.962725   7.076800  -4.831660   2.543610  10.969100 -79.784800   9.409060  -1.131570  -0.617476   3.116710 -14.166800   6.149870  -3.523030  -3.773620  37.265800  28.258300 -51.884700 -32.705600  -0.006505   0.011937 -11.352800  -0.003247   0.002406 -29.798000  -1.449320   2.528960 -24.406400  -0.001572  -0.002296 -17.084500   0.004991  -0.001864 -28.520500  -3.869090   7.082970 -40.579800  -0.001913  -0.000855 -27.026200   0.010450  -0.000949 -27.437300  -3.735710   7.154900 -30.044300   0.008037   0.000720 -20.009500   0.001868   0.000365 -28.526600  -3.864710   7.073840 -43.147300  -0.001851   0.000444 -28.736100   0.002156  -0.001733   5.588860   4.368370   7.908690  71.893300  -2.146250  -0.046238   4.381330  -2.657770  16.759200 -19.582000  -1.750220   6.332820 -53.323400  50.822500 100.156000  19.986300  -0.000218   0.000177   4.993130   0.000290  -0.001528  39.798300   1.653240   1.983780  32.585700   0.005233  -0.003285  22.847300   0.002108  -0.001560  29.605700  -3.748280  -6.555420  44.730800   0.012537  -0.004088  29.790800   0.007973  -0.002916  29.405300  -3.720630  -6.568380  44.428200  -0.002818  -0.002875  29.589200   0.000700  -0.005170  34.983000  -4.711680  -6.695750  52.888400  -0.011904   0.003857  35.223600  -0.005456   0.008001   2.646160   4.511270   0.636943  -0.439836   0.003754  13.196200  -2.220520  -3.685170   0.318839   0.000000   0.000000  -0.000000  -2.847870   4.412510  -2.901140   1.233390   0.368942 -14.090800   2.252500  -2.307200   0.142402  -0.000000   0.000000   0.000000
  2.170180  89.427200  -0.874367  -1.106890  -1.499690   0.824921   0.924077   2.816750  -0.788399   1.890210   5.620110  -1.625180  -2.480180   0.485486   0.015021  -4.076900   0.978855   7.060630  -4.836590   2.543030  10.944800 -79.777100   9.413600  -1.157900  -0.617311   3.114460 -14.174500   6.164880  -3.527700  -3.773610  37.270300  28.261100 -51.862200 -32.697900  -0.006895   0.012125 -11.349000  -0.003443   0.002469 -29.797900  -1.456050   2.541410 -24.406800  -0.001592  -0.002357 -17.084800   0.004973  -0.001909 -28.520600  -3.869070   7.082900 -40.585400  -0.001969  -0.000908 -27.029900   0.010428  -0.000980 -27.437300  -3.735640   7.154820 -30.051900   0.008030   0.000738 -20.014600   0.001831   0.000368 -28.531000  -3.864710   7.073820 -43.153900  -0.001895   0.000400 -28.740500   0.002069  -0.001639   5.631150   4.305070   7.940170  71.955500  -2.084020  -0.158078   4.376240  -2.662800  17.057100 -19.549300  -1.571060   6.244430 -53.199500  50.860000 100.170000  19.953700  -0.000149   0.000138   4.976820   0.000325  -0.001391  39.774900   1.597600   1.917700  32.566500   0.005239  -0.003276  22.830000   0.002113  -0.001547  29.464100  -3.748010  -6.601450  44.521000   0.012534  -0.004068  29.651100   0.007987  -0.002845  29.297200  -3.728560  -6.612260  44.269500  -0.002837  -0.002859  29.483500   0.000710  -0.005145  34.850400  -4.686100  -6.689430  52.684700  -0.011972   0.003814  35.088000  -0.005461   0.008033   2.648710   4.496560   0.633051  -0.437054   0.040503  13.215700  -2.228510  -3.692040   0.299977  -0.000000   0.000000   0.000000  -2.845880   4.451560  -2.900740   1.235520   0.297862 -14.088800   2.236620  -2.262800   0.140852  -0.000000   0.000000   0.000000
  2.158570  89.429700  -0.896010  -1.106410  -1.517590   0.824953   0.923894   2.833070  -0.774073   1.889530   5.652990  -1.596770  -2.486310   0.489922   0.014961  -4.085550   0.987864   7.031340  -4.844200   2.537790  10.909900 -79.766100   9.426020  -1.191070  -0.617369   3.112130 -14.180400   6.184990  -3.539400  -3.773550  37.271900  28.252800 -51.840500 -32.694800  -0.007128   0.012312 -11.347400  -0.003562   0.002535 -29.801100  -1.465250   2.556370 -24.409500  -0.001616  -0.002427 -17.086700   0.004952  -0.001960 -28.520600  -3.869050   7.082810 -40.601400  -0.002030  -0.000970 -27.040500   0.010401  -0.001015 -27.437400  -3.735570   7.154730 -30.068800   0.008022   0.000758 -20.025800   0.001785   0.000372 -28.540900  -3.864700   7.073820 -43.168800  -0.001941   0.000352 -28.750400   0.001961  -0.001523   5.680320   4.227150   7.961010  72.031700  -2.043790  -0.345514   4.400320  -2.664310  17.588500 -19.542700  -1.378510   6.094130 -53.034800  50.897600 100.185000  19.774000  -0.000064   0.000078   4.886990   0.000368  -0.001234  39.765200   1.462030   1.756070  32.553800   0.005249  -0.003262  22.818600   0.002119  -0.001530  29.245300  -3.747530  -6.667460  44.196000   0.012530  -0.004043  29.434500   0.008006  -0.002766  29.151000  -3.740990  -6.673630  44.054500  -0.002862  -0.002839  29.340300   0.000723  -0.005111  34.668300  -4.632290  -6.662080  52.406700  -0.012039   0.003787  34.902900  -0.005469   0.008063   2.651430   4.481840   0.630637  -0.434297   0.077246  13.234500  -2.236510  -3.698910   0.280947  -0.000000   0.000000   0.000000  -2.843880   4.490620  -2.900400   1.237640   0.226782 -14.084900   2.225240  -2.218390   0.139303  -0.000000   0.000000   0.000000
